<svg width="100" height="100" viewBox="0 0 100 100" fill="none" xmlns="http://www.w3.org/2000/svg">
<circle cx="50" cy="50" r="50" fill="#E5E5EA"/>
<path d="M50 90C72.0914 90 90 72.0914 90 50C90 27.9086 72.0914 10 50 10C27.9086 10 10 27.9086 10 50C10 72.0914 27.9086 90 50 90Z" fill="#F2F2F7"/>
<path d="M50 20C65 20 75 35 75 55H25C25 35 35 20 50 20Z" fill="#333333"/>
<circle cx="50" cy="55" r="20" fill="#FFCC99"/>
<path d="M30 85C30 70 40 65 50 65C60 65 70 70 70 85" stroke="#333333" stroke-width="20" stroke-linecap="round"/>
</svg>
